<svg width="95" height="120" viewBox="0 0 95 120" fill="none" xmlns="http://www.w3.org/2000/svg">
<path d="M1 8C1 4.13401 4.13401 1 8 1H87C90.866 1 94 4.13401 94 8V112C94 115.866 90.866 119 87 119H8C4.13401 119 1 115.866 1 112V8Z" fill="white" stroke="black" stroke-width="2"/>
<path d="M5.3125 7.09375H13.7656C15.6719 7.09375 17.125 7.23958 18.125 7.53125C19.4688 7.92708 20.6198 8.63021 21.5781 9.64062C22.5365 10.651 23.2656 11.8906 23.7656 13.3594C24.2656 14.8177 24.5156 16.6198 24.5156 18.7656C24.5156 20.651 24.2812 22.276 23.8125 23.6406C23.2396 25.3073 22.4219 26.6562 21.3594 27.6875C20.5573 28.4688 19.474 29.0781 18.1094 29.5156C17.0885 29.8385 15.724 30 14.0156 30H5.3125V7.09375ZM9.9375 10.9688V26.1406H13.3906C14.6823 26.1406 15.6146 26.0677 16.1875 25.9219C16.9375 25.7344 17.5573 25.4167 18.0469 24.9688C18.5469 24.5208 18.9531 23.7865 19.2656 22.7656C19.5781 21.7344 19.7344 20.3333 19.7344 18.5625C19.7344 16.7917 19.5781 15.4323 19.2656 14.4844C18.9531 13.5365 18.5156 12.7969 17.9531 12.2656C17.3906 11.7344 16.6771 11.375 15.8125 11.1875C15.1667 11.0417 13.901 10.9688 12.0156 10.9688H9.9375ZM27.4062 21.4688C27.4062 20.0104 27.7656 18.599 28.4844 17.2344C29.2031 15.8698 30.2188 14.8281 31.5312 14.1094C32.8542 13.3906 34.3281 13.0312 35.9531 13.0312C38.4635 13.0312 40.5208 13.849 42.125 15.4844C43.7292 17.1094 44.5312 19.1667 44.5312 21.6562C44.5312 24.1667 43.7188 26.25 42.0938 27.9062C40.4792 29.5521 38.4427 30.375 35.9844 30.375C34.4635 30.375 33.0104 30.0312 31.625 29.3438C30.25 28.6562 29.2031 27.651 28.4844 26.3281C27.7656 24.9948 27.4062 23.375 27.4062 21.4688ZM31.9062 21.7031C31.9062 23.349 32.2969 24.6094 33.0781 25.4844C33.8594 26.3594 34.8229 26.7969 35.9688 26.7969C37.1146 26.7969 38.0729 26.3594 38.8438 25.4844C39.625 24.6094 40.0156 23.3385 40.0156 21.6719C40.0156 20.0469 39.625 18.7969 38.8438 17.9219C38.0729 17.0469 37.1146 16.6094 35.9688 16.6094C34.8229 16.6094 33.8594 17.0469 33.0781 17.9219C32.2969 18.7969 31.9062 20.0573 31.9062 21.7031ZM62.4531 18.3125L58.125 19.0938C57.9792 18.2292 57.6458 17.5781 57.125 17.1406C56.6146 16.7031 55.9479 16.4844 55.125 16.4844C54.0312 16.4844 53.1562 16.8646 52.5 17.625C51.8542 18.375 51.5312 19.6354 51.5312 21.4062C51.5312 23.375 51.8594 24.7656 52.5156 25.5781C53.1823 26.3906 54.0729 26.7969 55.1875 26.7969C56.0208 26.7969 56.7031 26.5625 57.2344 26.0938C57.7656 25.6146 58.1406 24.7969 58.3594 23.6406L62.6719 24.375C62.224 26.3542 61.3646 27.849 60.0938 28.8594C58.8229 29.8698 57.1198 30.375 54.9844 30.375C52.5573 30.375 50.6198 29.6094 49.1719 28.0781C47.7344 26.5469 47.0156 24.4271 47.0156 21.7188C47.0156 18.9792 47.7396 16.849 49.1875 15.3281C50.6354 13.7969 52.5938 13.0312 55.0625 13.0312C57.0833 13.0312 58.6875 13.4688 59.875 14.3438C61.0729 15.2083 61.9323 16.5312 62.4531 18.3125Z" fill="black"/>
<path d="M4.15625 48.5469L8.65625 48.1094C8.92708 49.6198 9.47396 50.7292 10.2969 51.4375C11.1302 52.1458 12.25 52.5 13.6562 52.5C15.1458 52.5 16.2656 52.1875 17.0156 51.5625C17.776 50.9271 18.1562 50.1875 18.1562 49.3438C18.1562 48.8021 17.9948 48.3438 17.6719 47.9688C17.3594 47.5833 16.8073 47.25 16.0156 46.9688C15.474 46.7812 14.2396 46.4479 12.3125 45.9688C9.83333 45.3542 8.09375 44.599 7.09375 43.7031C5.6875 42.4427 4.98438 40.9062 4.98438 39.0938C4.98438 37.9271 5.3125 36.8385 5.96875 35.8281C6.63542 34.8073 7.58854 34.0312 8.82812 33.5C10.0781 32.9688 11.5833 32.7031 13.3438 32.7031C16.2188 32.7031 18.3802 33.3333 19.8281 34.5938C21.2865 35.8542 22.0521 37.5365 22.125 39.6406L17.5 39.8438C17.3021 38.6667 16.875 37.8229 16.2188 37.3125C15.5729 36.7917 14.599 36.5312 13.2969 36.5312C11.9531 36.5312 10.901 36.8073 10.1406 37.3594C9.65104 37.7135 9.40625 38.1875 9.40625 38.7812C9.40625 39.3229 9.63542 39.7865 10.0938 40.1719C10.6771 40.6615 12.0938 41.1719 14.3438 41.7031C16.5938 42.2344 18.2552 42.7865 19.3281 43.3594C20.4115 43.9219 21.2552 44.6979 21.8594 45.6875C22.474 46.6667 22.7812 47.8802 22.7812 49.3281C22.7812 50.6406 22.4167 51.8698 21.6875 53.0156C20.9583 54.1615 19.9271 55.0156 18.5938 55.5781C17.2604 56.1302 15.599 56.4062 13.6094 56.4062C10.7135 56.4062 8.48958 55.7396 6.9375 54.4062C5.38542 53.0625 4.45833 51.1094 4.15625 48.5469ZM31.0156 33.0938V41.5156C32.4323 39.8594 34.125 39.0312 36.0938 39.0312C37.1042 39.0312 38.0156 39.2188 38.8281 39.5938C39.6406 39.9688 40.25 40.4479 40.6562 41.0312C41.0729 41.6146 41.3542 42.2604 41.5 42.9688C41.6562 43.6771 41.7344 44.776 41.7344 46.2656V56H37.3438V47.2344C37.3438 45.4948 37.2604 44.3906 37.0938 43.9219C36.9271 43.4531 36.6302 43.0833 36.2031 42.8125C35.7865 42.5312 35.2604 42.3906 34.625 42.3906C33.8958 42.3906 33.2448 42.5677 32.6719 42.9219C32.099 43.276 31.6771 43.8125 31.4062 44.5312C31.1458 45.2396 31.0156 46.2917 31.0156 47.6875V56H26.625V33.0938H31.0156ZM49.4844 44.4688L45.5 43.75C45.9479 42.1458 46.7188 40.9583 47.8125 40.1875C48.9062 39.4167 50.5312 39.0312 52.6875 39.0312C54.6458 39.0312 56.1042 39.2656 57.0625 39.7344C58.0208 40.1927 58.6927 40.7812 59.0781 41.5C59.474 42.2083 59.6719 43.5156 59.6719 45.4219L59.625 50.5469C59.625 52.0052 59.6927 53.0833 59.8281 53.7812C59.974 54.4688 60.2396 55.2083 60.625 56H56.2812C56.1667 55.7083 56.026 55.276 55.8594 54.7031C55.7865 54.4427 55.7344 54.2708 55.7031 54.1875C54.9531 54.9167 54.151 55.4635 53.2969 55.8281C52.4427 56.1927 51.5312 56.375 50.5625 56.375C48.8542 56.375 47.5052 55.9115 46.5156 54.9844C45.5365 54.0573 45.0469 52.8854 45.0469 51.4688C45.0469 50.5312 45.2708 49.6979 45.7188 48.9688C46.1667 48.2292 46.7917 47.6667 47.5938 47.2812C48.4062 46.8854 49.5729 46.5417 51.0938 46.25C53.1458 45.8646 54.5677 45.5052 55.3594 45.1719V44.7344C55.3594 43.8906 55.151 43.2917 54.7344 42.9375C54.3177 42.5729 53.5312 42.3906 52.375 42.3906C51.5938 42.3906 50.9844 42.5469 50.5469 42.8594C50.1094 43.1615 49.7552 43.6979 49.4844 44.4688ZM55.3594 48.0312C54.7969 48.2188 53.9062 48.4427 52.6875 48.7031C51.4688 48.9635 50.6719 49.2188 50.2969 49.4688C49.724 49.875 49.4375 50.3906 49.4375 51.0156C49.4375 51.6302 49.6667 52.1615 50.125 52.6094C50.5833 53.0573 51.1667 53.2812 51.875 53.2812C52.6667 53.2812 53.4219 53.0208 54.1406 52.5C54.6719 52.1042 55.0208 51.6198 55.1875 51.0469C55.3021 50.6719 55.3594 49.9583 55.3594 48.9062V48.0312ZM68.2188 56H63.8281V39.4062H67.9062V41.7656C68.6042 40.651 69.2292 39.9167 69.7812 39.5625C70.3438 39.2083 70.9792 39.0312 71.6875 39.0312C72.6875 39.0312 73.651 39.3073 74.5781 39.8594L73.2188 43.6875C72.4792 43.2083 71.7917 42.9688 71.1562 42.9688C70.5417 42.9688 70.0208 43.1406 69.5938 43.4844C69.1667 43.8177 68.8281 44.4271 68.5781 45.3125C68.3385 46.1979 68.2188 48.0521 68.2188 50.875V56ZM86.0938 50.7188L90.4688 51.4531C89.9062 53.0573 89.0156 54.2812 87.7969 55.125C86.5885 55.9583 85.0729 56.375 83.25 56.375C80.3646 56.375 78.2292 55.4323 76.8438 53.5469C75.75 52.0365 75.2031 50.1302 75.2031 47.8281C75.2031 45.0781 75.9219 42.9271 77.3594 41.375C78.7969 39.8125 80.6146 39.0312 82.8125 39.0312C85.2812 39.0312 87.2292 39.849 88.6562 41.4844C90.0833 43.1094 90.7656 45.6042 90.7031 48.9688H79.7031C79.7344 50.2708 80.0885 51.2865 80.7656 52.0156C81.4427 52.7344 82.2865 53.0938 83.2969 53.0938C83.9844 53.0938 84.5625 52.9062 85.0312 52.5312C85.5 52.1562 85.8542 51.5521 86.0938 50.7188ZM86.3438 46.2812C86.3125 45.0104 85.9844 44.0469 85.3594 43.3906C84.7344 42.724 83.974 42.3906 83.0781 42.3906C82.1198 42.3906 81.3281 42.7396 80.7031 43.4375C80.0781 44.1354 79.7708 45.0833 79.7812 46.2812H86.3438Z" fill="black"/>
<line x1="11" y1="66.5" x2="53" y2="66.5" stroke="black"/>
<line x1="43" y1="104.5" x2="85" y2="104.5" stroke="black"/>
<line x1="11" y1="91.5" x2="53" y2="91.5" stroke="black"/>
<line x1="43" y1="79.5" x2="85" y2="79.5" stroke="black"/>
</svg>
